<svg width="15" height="20" viewBox="0 0 15 20" fill="none" xmlns="http://www.w3.org/2000/svg">
<g clip-path="url(#clip0_7_245)">
<path d="M14.4256 1.92456C12.0649 0.272766 9.66569 1.11222 7.54852 1.85282C5.55017 2.55196 3.65977 3.21204 1.81477 2.00428H1.83867C2.15939 2.00428 2.41921 1.73563 2.41921 1.404C2.41921 1.07236 2.15939 0.803711 1.83867 0.803711H0.899631C0.578908 0.803711 0.319092 1.07236 0.319092 1.404C0.319092 1.73563 0.578908 2.00428 0.899631 2.00428H0.952828C0.849517 2.11429 0.788611 2.26257 0.788611 2.42122V19.411C0.788611 19.7426 1.04843 20.0113 1.36915 20.0113C1.68987 20.0113 1.94969 19.7426 1.94969 19.411V10.858C2.65436 11.1729 3.35902 11.2972 4.05443 11.2972C5.39592 11.2972 6.7043 10.8396 7.92009 10.4139C9.96245 9.69963 11.8905 9.0244 13.774 10.3422C13.9521 10.4665 14.1819 10.4793 14.3715 10.3756C14.5612 10.2712 14.6799 10.0679 14.6799 9.84551L14.6807 2.42204C14.6807 2.22274 14.5852 2.03617 14.4256 1.92456ZM13.5197 8.83232C11.4567 7.90997 9.39573 8.63142 7.54856 9.27715C5.59878 9.95956 3.75238 10.6053 1.94981 9.51472V3.43534C4.0129 4.35768 6.07382 3.63623 7.921 2.9905C9.87078 2.30809 11.7172 1.66238 13.5197 2.75293V8.83313V8.83232Z" fill="black"/>
</g>
<defs>
<clipPath id="clip0_7_245">
<rect width="15" height="20" fill="white"/>
</clipPath>
</defs>
</svg>
