<svg width="16" height="15" viewBox="0 0 16 15" fill="none" xmlns="http://www.w3.org/2000/svg">
<path d="M3.24425 6.60059H0.642002C0.399002 6.60059 0.208252 6.78917 0.208252 7.02941V13.8898C0.208252 14.13 0.399002 14.3186 0.642002 14.3186H3.24425C3.48725 14.3186 3.67775 14.13 3.67775 13.8898V7.02941C3.678 6.78917 3.48725 6.60059 3.24425 6.60059Z" fill="black"/>
<path d="M15.7917 7.41281C15.7917 6.71409 15.3065 6.00697 14.3797 6.00697H10.178C10.7782 4.94542 10.9547 3.45233 10.5375 2.35989C10.231 1.55637 9.64525 1.08751 8.88725 1.03981L8.875 1.03882C8.38175 1.00892 7.95475 1.37422 7.91375 1.86112C7.80575 2.94467 7.3255 4.86114 6.63725 5.54157C6.05775 6.11448 5.56175 6.35447 4.7395 6.7519C4.6205 6.80949 4.4905 6.87227 4.353 6.93999C4.3555 6.9694 4.357 6.99882 4.357 7.02897V13.8194C4.45625 13.853 4.55425 13.8864 4.6505 13.919C6.0075 14.3815 7.18025 14.7806 8.97275 14.7806H12.3697C13.2967 14.7806 13.7817 14.0733 13.7817 13.3748C13.7817 13.1674 13.7392 12.9596 13.655 12.7692C13.9637 12.7144 14.234 12.5676 14.4342 12.3429C14.6615 12.0876 14.7867 11.7482 14.7867 11.3874C14.7867 11.1807 14.7442 10.9729 14.6602 10.7831C15.4045 10.656 15.792 10.0245 15.792 9.40021C15.792 9.03813 15.6615 8.67357 15.407 8.40663C15.661 8.13946 15.7917 7.7749 15.7917 7.41281Z" fill="black"/>
</svg>
