<svg width="21" height="19" viewBox="0 0 21 19" fill="none" xmlns="http://www.w3.org/2000/svg">
<path d="M15.6773 7.91553C17.4594 7.91553 18.9 6.46195 18.9 4.67576C18.9 2.88424 17.4594 1.43066 15.6773 1.43066C13.8952 1.43066 12.4492 2.88424 12.4492 4.67576C12.4492 4.95502 12.4956 5.22149 12.5621 5.48022L8.84626 7.38715C8.14498 6.55665 7.10135 6.02806 5.93215 6.02806C3.8166 6.02806 2.10001 7.75365 2.10001 9.88043C2.10001 12.0009 3.8166 13.7265 5.93215 13.7265C7.0053 13.7265 7.9728 13.2812 8.66703 12.5669L11.1107 14.0264C11.0067 14.345 10.9363 14.679 10.9363 15.0325C10.9363 16.8187 12.3822 18.2723 14.1643 18.2723C15.9464 18.2723 17.387 16.8187 17.387 15.0325C17.387 13.241 15.9464 11.7874 14.1643 11.7874C13.2385 11.7874 12.4092 12.185 11.8204 12.8132L9.44791 11.3963C9.64688 10.9308 9.75797 10.4186 9.75797 9.88043C9.75797 9.43499 9.6791 9.00892 9.54105 8.61086L13.2029 6.73172C13.7951 7.44852 14.6777 7.91553 15.6773 7.91553Z" fill="black"/>
</svg>
