<svg width="16" height="16" viewBox="0 0 16 16" fill="none" xmlns="http://www.w3.org/2000/svg">
<g clip-path="url(#clip0_7_236)">
<path d="M0.20802 4.47589C0.20802 4.35989 0.266021 4.25389 0.36402 4.19389L6.75002 0.0538913C6.85602 -0.0141087 6.98802 -0.0181087 7.09802 0.0438913C7.20602 0.101891 7.27602 0.217891 7.27602 0.343891L7.27002 1.73989C7.29002 1.74589 7.30802 1.74989 7.32802 1.75789C7.45002 1.79789 7.57002 1.83989 7.71002 1.88389C8.49002 2.16389 9.24802 2.53389 9.97002 2.98989C11.344 3.85989 12.578 5.06189 13.524 6.45989C14.444 7.81189 15.118 9.37389 15.472 10.9699C15.82 12.5119 15.884 14.1499 15.666 15.7059C15.642 15.8759 15.5 15.9979 15.328 15.9979C15.158 15.9979 15.014 15.8759 14.99 15.7059C14.79 14.2939 14.336 12.9319 13.68 11.7679C13.056 10.6619 12.226 9.69189 11.274 8.96589C10.376 8.28189 9.35402 7.80789 8.32602 7.59789C7.97602 7.52589 7.61402 7.48589 7.24602 7.47189L7.24202 8.68389C7.24202 8.80589 7.17402 8.92189 7.06202 8.97989C6.95402 9.04189 6.82002 9.03389 6.71402 8.96589L0.36202 4.76189C0.26602 4.69789 0.20802 4.59189 0.20802 4.47589Z" fill="black"/>
</g>
<defs>
<clipPath id="clip0_7_236">
<rect width="16" height="16" fill="white" transform="matrix(-1 0 0 1 16 0)"/>
</clipPath>
</defs>
</svg>
