<svg width="12" height="12" viewBox="0 0 12 12" fill="none" xmlns="http://www.w3.org/2000/svg">
<g clip-path="url(#clip0_7_283)">
<path d="M0.156 3.35692C0.156 3.26992 0.1995 3.19042 0.273001 3.14542L5.0625 0.0404185C5.142 -0.0105815 5.241 -0.0135815 5.3235 0.0329185C5.4045 0.0764185 5.457 0.163418 5.457 0.257918L5.4525 1.30492C5.4675 1.30942 5.481 1.31242 5.496 1.31842C5.5875 1.34842 5.6775 1.37992 5.7825 1.41292C6.3675 1.62292 6.936 1.90042 7.4775 2.24242C8.508 2.89492 9.4335 3.79642 10.143 4.84492C10.833 5.85892 11.3385 7.03042 11.604 8.22742C11.865 9.38392 11.913 10.6124 11.7495 11.7794C11.7315 11.9069 11.625 11.9984 11.496 11.9984C11.3685 11.9984 11.2605 11.9069 11.2425 11.7794C11.0925 10.7204 10.752 9.69892 10.26 8.82592C9.792 7.99642 9.1695 7.26892 8.4555 6.72442C7.782 6.21142 7.0155 5.85592 6.2445 5.69842C5.982 5.64442 5.7105 5.61442 5.4345 5.60392L5.4315 6.51292C5.4315 6.60442 5.3805 6.69142 5.2965 6.73492C5.2155 6.78142 5.115 6.77542 5.0355 6.72442L0.2715 3.57142C0.1995 3.52342 0.156 3.44392 0.156 3.35692Z" fill="#979797"/>
</g>
<defs>
<clipPath id="clip0_7_283">
<rect width="12" height="12" fill="white" transform="matrix(-1 0 0 1 12 0)"/>
</clipPath>
</defs>
</svg>
